<svg width="18" height="18" viewBox="0 0 18 18" fill="none" xmlns="http://www.w3.org/2000/svg">
<path d="M9 11L8.67191 11.3773C8.86005 11.5409 9.13996 11.5409 9.32809 11.3773L9 11ZM4.63659 11.3913C4.90223 11.3158 5.05642 11.0393 4.98098 10.7737C4.90554 10.5081 4.62905 10.3539 4.36341 10.4293L4.63659 11.3913ZM13.6366 10.4293C13.371 10.3539 13.0945 10.5081 13.019 10.7737C12.9436 11.0393 13.0978 11.3158 13.3634 11.3913L13.6366 10.4293ZM12.5 4.91304C12.5 5.4462 12.2923 6.0669 11.9353 6.7267C11.5818 7.37981 11.1042 8.03078 10.6165 8.614C10.1301 9.19556 9.64223 9.69944 9.27535 10.0583C9.09222 10.2375 8.93998 10.3798 8.83412 10.4768C8.78121 10.5253 8.73993 10.5624 8.71224 10.587C8.69839 10.5994 8.68795 10.6086 8.68114 10.6146C8.67774 10.6176 8.67525 10.6198 8.6737 10.6211C8.67293 10.6218 8.67239 10.6223 8.67209 10.6225C8.67194 10.6227 8.67185 10.6228 8.67182 10.6228C8.67181 10.6228 8.67183 10.6228 8.67182 10.6228C8.67186 10.6227 8.67191 10.6227 9 11C9.32809 11.3773 9.32817 11.3772 9.32827 11.3771C9.32833 11.3771 9.32844 11.377 9.32855 11.3769C9.32876 11.3767 9.32904 11.3765 9.32937 11.3762C9.33004 11.3756 9.33095 11.3748 9.3321 11.3738C9.33439 11.3718 9.33764 11.369 9.34181 11.3653C9.35014 11.3579 9.36216 11.3473 9.37761 11.3336C9.40851 11.306 9.45317 11.2658 9.50964 11.2141C9.62252 11.1107 9.78278 10.9609 9.97465 10.7732C10.3578 10.3984 10.8699 9.86965 11.3835 9.25556C11.8958 8.64313 12.4182 7.93541 12.8147 7.20265C13.2077 6.47658 13.5 5.68424 13.5 4.91304H12.5ZM9 11C9.32809 10.6227 9.32814 10.6227 9.32818 10.6228C9.32817 10.6228 9.3282 10.6228 9.32818 10.6228C9.32815 10.6228 9.32806 10.6227 9.32791 10.6225C9.32761 10.6223 9.32707 10.6218 9.3263 10.6211C9.32475 10.6198 9.32226 10.6176 9.31886 10.6146C9.31206 10.6086 9.30161 10.5994 9.28777 10.587C9.26007 10.5624 9.2188 10.5253 9.16589 10.4768C9.06002 10.3798 8.90778 10.2375 8.72465 10.0583C8.35777 9.69944 7.86994 9.19556 7.38354 8.614C6.89576 8.03078 6.41818 7.37981 6.06474 6.7267C5.70767 6.0669 5.5 5.4462 5.5 4.91304H4.5C4.5 5.68424 4.79233 6.47658 5.18527 7.20265C5.58182 7.93541 6.10425 8.64313 6.61646 9.25556C7.13007 9.86965 7.64223 10.3984 8.02535 10.7732C8.21722 10.9609 8.37748 11.1107 8.49037 11.2141C8.54683 11.2658 8.59149 11.306 8.62239 11.3336C8.63785 11.3473 8.64986 11.3579 8.6582 11.3653C8.66236 11.369 8.66561 11.3718 8.66791 11.3738C8.66905 11.3748 8.66996 11.3756 8.67063 11.3762C8.67097 11.3765 8.67124 11.3767 8.67146 11.3769C8.67156 11.377 8.67168 11.3771 8.67173 11.3771C8.67183 11.3772 8.67191 11.3773 9 11ZM5.5 4.91304C5.5 3.03837 7.05659 1.5 9 1.5V0.5C6.52514 0.5 4.5 2.46548 4.5 4.91304H5.5ZM9 1.5C10.9434 1.5 12.5 3.03837 12.5 4.91304H13.5C13.5 2.46548 11.4749 0.5 9 0.5V1.5ZM16.5 13.6667C16.5 13.9527 16.363 14.2705 16.0204 14.608C15.6761 14.9471 15.1522 15.2756 14.4645 15.5622C13.0913 16.1343 11.1596 16.5 9 16.5V17.5C11.2587 17.5 13.3269 17.1195 14.8492 16.4852C15.6092 16.1686 16.2569 15.7788 16.7222 15.3203C17.1893 14.8602 17.5 14.3011 17.5 13.6667H16.5ZM9 16.5C6.84038 16.5 4.90866 16.1343 3.53545 15.5622C2.84776 15.2756 2.32388 14.9471 1.97957 14.608C1.63702 14.2705 1.5 13.9527 1.5 13.6667H0.5C0.5 14.3011 0.810694 14.8602 1.27779 15.3203C1.74312 15.7788 2.39082 16.1686 3.15084 16.4852C4.67306 17.1195 6.74135 17.5 9 17.5V16.5ZM1.5 13.6667C1.5 13.312 1.71424 12.9028 2.26296 12.4798C2.80666 12.0608 3.61675 11.6809 4.63659 11.3913L4.36341 10.4293C3.27048 10.7397 2.33057 11.1651 1.65247 11.6878C0.979371 12.2066 0.5 12.8756 0.5 13.6667H1.5ZM13.3634 11.3913C14.3833 11.6809 15.1933 12.0608 15.737 12.4798C16.2858 12.9028 16.5 13.312 16.5 13.6667H17.5C17.5 12.8756 17.0206 12.2066 16.3475 11.6878C15.6694 11.1651 14.7295 10.7397 13.6366 10.4293L13.3634 11.3913Z" fill="#2B7EFE"/>
</svg>
