<svg width="18" height="18" viewBox="0 0 18 18" fill="none" xmlns="http://www.w3.org/2000/svg">
<path d="M8.73169 1.65409C8.84227 1.43303 9.15774 1.43303 9.26831 1.65409L11.3295 5.77495C11.5188 6.15322 11.8802 6.4158 12.2984 6.47886L16.8545 7.1658C17.0989 7.20265 17.1964 7.50268 17.0203 7.67615L13.7381 10.9099C13.4368 11.2068 13.2988 11.6316 13.3681 12.0489L14.1227 16.5943C14.1631 16.8381 13.9079 17.0235 13.6885 16.9097L9.59878 14.7874C9.22336 14.5926 8.77664 14.5926 8.40122 14.7874L4.31146 16.9097C4.09207 17.0235 3.83685 16.8381 3.87733 16.5943L4.63194 12.0489C4.7012 11.6316 4.56316 11.2068 4.26187 10.9099L0.979656 7.67615C0.803584 7.50268 0.901071 7.20265 1.14548 7.1658L5.7016 6.47886C6.11983 6.4158 6.48124 6.15322 6.67046 5.77495L8.73169 1.65409Z" stroke="#4CB24E"/>
</svg>
